<?xml version="1.0"?>
<!DOCTYPE svg PUBLIC "-//W3C//DTD SVG 1.1//EN" "http://www.w3.org/Graphics/SVG/1.1/DTD/svg11.dtd">
<svg xmlns="http://www.w3.org/2000/svg" version="1.1" width="800" height="800">
      <rect x="0" y="0" width="800" height="800" fill="green"  />
      <circle cx="400" cy="430" r="30" fill="orange"  />
      <rect x="385" y="460" width="10" height="20" fill="orange"  />
      <rect x="405" y="460" width="10" height="20" fill="orange"  />
      <rect x="370" y="430" width="10" height="15" fill="orange"  />
      <rect x="420" y="430" width="10" height="15" fill="orange"  />
      <circle cx="400" cy="370" r="40" fill="orange"  />
      <circle cx="400" cy="370" r="50" fill="gold"  />
      <line x1="350" y1="370" x2="370" y2="370" stroke="darkorange"  />
      <line x1="430" y1="370" x2="450" y2="370" stroke="darkorange"  />
      <line x1="400" y1="320" x2="400" y2="340" stroke="darkorange"  />
      <circle cx="390" cy="365" r="5" fill="white"  />
      <circle cx="410" cy="365" r="5" fill="white"  />
      <circle cx="390" cy="365" r="2" fill="black"  />
      <circle cx="410" cy="365" r="2" fill="black"  />
      <circle cx="400" cy="380" r="3" fill="black"  />
      <path d=" 395 385 400 390 405 385 black" fill="black"  />
</svg>
